<svg data-v-423bf9ae="" xmlns="http://www.w3.org/2000/svg" viewBox="0 0 489.4104780671747 163" class="iconAbove"><!----><!----><!----><g data-v-423bf9ae="" id="2ce49a04-0ab5-4308-9297-dc77d11c138e" fill="white" transform="matrix(5.7034202539510614,0,0,5.7034202539510614,-2.2243264234869002,103.57034002968769)"><path d="M1.69 2.55C2.16 2.55 2.55 2.18 2.55 1.72C2.55 1.26 2.16 0.88 1.69 0.88C1.23 0.88 0.87 1.26 0.87 1.72C0.87 2.18 1.23 2.55 1.69 2.55ZM3.15 10.08C2.65 9.94 2.58 9.56 2.58 8.79L2.58 3.70L0.39 4.17L0.39 4.38C0.97 4.62 1.11 4.82 1.11 5.29L1.11 8.79C1.11 9.51 1.08 9.91 0.55 10.08L0.55 10.29L3.15 10.29ZM8.04 9.03C7.92 9.28 7.60 9.58 7.20 9.58C6.51 9.58 6.15 9.18 6.15 8.23L6.15 4.03L7.76 4.03L7.81 3.82L6.15 3.82L6.15 1.65L4.66 1.89L4.66 3.82L3.92 3.82L3.96 4.03L4.66 4.03L4.66 8.27C4.66 9.97 5.31 10.42 6.36 10.42C7.24 10.42 7.98 9.77 8.22 9.14L8.04 9.03ZM13.38 9.69C14.07 8.71 13.66 7.53 12.40 6.75L10.99 5.87C9.77 5.10 10.02 3.91 11.14 3.91C12.67 3.91 13.09 5.11 13.23 5.77L13.44 5.77L13.44 4.13C13.44 4.13 12.75 3.70 11.14 3.70C9.73 3.70 9.25 4.45 9.25 4.45C8.58 5.43 8.92 6.41 10.28 7.28L11.69 8.13C12.75 8.83 12.75 10.21 11.52 10.21C9.79 10.21 9.39 8.72 9.24 7.98L9.03 7.98L9.03 9.81C9.03 9.81 9.83 10.42 11.52 10.42C12.88 10.42 13.38 9.69 13.38 9.69ZM16.87 7.21L18.48 2.84L20.22 7.21ZM24.02 10.08C23.65 10.05 23.32 10.12 22.86 9.00C22.86 9.00 21.92 6.61 19.35 0.43L19.17 0.43L16.77 6.82C15.48 10.08 15.13 10.07 14.69 10.08L14.69 10.29L17.98 10.29L17.98 10.08C15.89 10.16 16.63 7.98 16.83 7.42L20.30 7.42L20.75 8.54C20.92 8.93 21.35 10.08 20.43 10.08L20.43 10.29L24.02 10.29ZM31.22 10.08C30.72 9.95 30.65 9.56 30.65 8.79L30.65 5.88C30.65 4.19 29.90 3.70 28.80 3.70C27.92 3.70 26.87 4.34 26.56 5.18L26.56 3.70L24.37 4.17L24.37 4.38C24.95 4.62 25.07 4.79 25.07 5.28L25.07 8.81C25.07 9.52 25.06 9.93 24.53 10.08L24.53 10.29L27.13 10.29L27.13 10.08C26.64 9.94 26.56 9.58 26.56 8.81L26.56 5.73C26.61 5.19 27.24 4.55 27.87 4.55C28.69 4.55 29.16 5.11 29.16 5.92L29.16 8.79C29.16 9.51 29.13 9.93 28.60 10.08L28.60 10.29L31.22 10.29L31.22 10.08ZM37.04 8.30C37.04 9.28 36.40 9.97 35.46 9.97C34.29 9.97 33.70 9.04 33.70 6.80C33.70 4.62 34.38 3.91 35.36 3.91C36.19 3.91 37.04 4.54 37.04 6.09ZM39.23 9.91C38.65 9.87 38.51 9.74 38.51 9.06L38.51-0.10L36.33 0.35L36.33 0.56C36.90 0.71 37.04 0.88 37.04 1.37L37.04 4.16C36.60 3.88 36.01 3.70 35.34 3.70C33.43 3.70 31.98 4.75 31.98 6.97C31.98 9.04 33.21 10.42 34.94 10.42C35.62 10.42 36.60 10.11 37.04 9.34L37.04 10.15C37.04 10.15 37.04 10.46 37.44 10.40L39.23 10.12ZM43.58 3.75C43.13 3.86 42.45 4.16 41.82 5.21L41.82 3.70L39.62 4.17L39.62 4.38C40.19 4.59 40.32 4.80 40.32 5.28L40.32 8.78C40.32 9.51 40.29 9.91 39.76 10.08L39.76 10.29L42.39 10.29L42.39 10.08C41.89 9.94 41.82 9.56 41.82 8.78L41.82 5.57C42.29 4.69 43.05 4.45 43.02 4.65C43.01 4.86 43.09 5.08 43.26 5.26C43.64 5.61 44.20 5.60 44.55 5.25C44.90 4.90 44.90 4.33 44.55 3.98C44.30 3.74 43.86 3.68 43.58 3.75ZM47.05 6.72C47.05 5.17 47.78 3.91 48.59 3.91C49.31 3.91 50.05 4.82 50.05 6.72ZM51.09 8.51C50.78 9.18 49.73 9.58 48.92 9.45C47.91 9.30 47.14 8.55 47.05 6.93L51.51 6.93C51.51 4.73 50.48 3.70 48.65 3.70C46.82 3.70 45.49 5.08 45.49 7.10C45.49 8.85 46.75 10.42 48.52 10.42C50.29 10.42 51.10 9.30 51.28 8.61ZM56.25 6.92C56.25 6.92 56.25 8.88 56.25 8.90C56.13 9.24 55.79 9.67 55.19 9.67C54.31 9.67 54.18 8.86 54.18 8.67C54.18 7.88 54.75 7.25 56.25 6.92ZM58.81 9.37C58.73 9.66 58.42 9.66 58.42 9.66C57.76 9.66 57.76 8.74 57.76 8.74L57.76 6.50C57.76 4.84 57.32 3.70 55.64 3.70C55.64 3.70 54.92 3.65 54.31 3.98C53.55 4.38 53.34 4.77 53.21 5.00C53.09 5.22 53.10 5.53 53.27 5.77C53.49 6.09 53.96 6.16 54.28 5.94C54.60 5.70 54.68 5.25 54.45 4.93C54.32 4.76 54.17 4.68 53.97 4.65C53.89 4.63 53.96 4.38 54.45 4.13C55.50 3.63 56.25 4.40 56.25 5.84L56.25 6.68C53.83 7.29 52.65 7.52 52.65 8.99C52.65 10.42 54.26 10.42 54.26 10.42C55.24 10.42 56.07 9.90 56.27 9.25C56.39 10.43 57.55 10.42 57.55 10.42C58.37 10.42 58.93 9.88 59.02 9.45ZM65.23 3.11C65.23 5.57 64.08 5.57 62.59 5.57L62.16 5.57L62.16 0.64L62.59 0.64C64.02 0.64 65.23 0.62 65.23 3.11ZM68.71 10.08C68.35 10.05 67.41 9.84 67.13 8.78C66.43 5.98 65.39 5.63 64.47 5.66C66.05 5.52 67.14 4.91 67.14 3.11C67.14 0.77 65.38 0.43 62.59 0.43L59.53 0.43L59.53 0.64C60.14 0.64 60.47 0.94 60.47 1.81L60.47 8.62C60.47 9.69 60.13 10.08 59.53 10.08L59.53 10.29L63.14 10.29L63.14 10.08C62.55 10.08 62.16 9.67 62.16 8.71L62.16 5.78L62.82 5.78C63 5.78 64.36 5.78 64.78 7.24C65.67 10.28 65.38 10.28 67.54 10.29L68.71 10.29ZM70.50 2.55C70.97 2.55 71.36 2.18 71.36 1.72C71.36 1.26 70.97 0.88 70.50 0.88C70.04 0.88 69.68 1.26 69.68 1.72C69.68 2.18 70.04 2.55 70.50 2.55ZM71.96 10.08C71.46 9.94 71.39 9.56 71.39 8.79L71.39 3.70L69.20 4.17L69.20 4.38C69.78 4.62 69.92 4.82 69.92 5.29L69.92 8.79C69.92 9.51 69.89 9.91 69.36 10.08L69.36 10.29L71.96 10.29ZM78.71 8.50C78.41 9.00 77.43 9.53 76.57 9.41C75.59 9.25 74.66 8.54 74.66 6.85C74.66 4.34 76.10 3.91 76.64 3.91C77.38 3.91 77.73 4.21 77.60 4.26C77.42 4.33 77.27 4.48 77.20 4.69C77.04 5.08 77.22 5.54 77.63 5.70C78.04 5.85 78.50 5.63 78.65 5.24C78.78 4.97 78.68 4.63 78.51 4.42C78.33 4.21 77.83 3.70 76.64 3.70C74.37 3.70 73.12 5.39 73.12 7.04C73.12 8.89 74.49 10.42 76.19 10.42C77.92 10.42 78.69 9.30 78.88 8.60ZM86.20 10.08C85.71 9.95 85.62 9.55 85.62 8.78L85.62 5.91C85.62 4.23 84.91 3.70 83.78 3.70C82.88 3.70 81.77 4.48 81.52 5.25L81.52-0.10L79.34 0.41L79.34 0.62C79.91 0.77 80.04 0.92 80.04 1.41L80.04 8.78C80.04 9.49 80.01 9.91 79.48 10.07L79.48 10.29L82.10 10.29L82.10 10.07C81.59 9.94 81.52 9.55 81.52 8.78L81.52 5.56C81.79 5.04 82.29 4.58 82.82 4.58C83.72 4.58 84.14 5.05 84.14 5.96L84.14 8.78C84.14 9.49 84.11 9.93 83.58 10.08L83.58 10.29L86.20 10.29L86.20 10.08Z"></path></g><!----><g data-v-423bf9ae="" id="262589ce-b966-4c5a-a102-c7c2c7fe3887" transform="matrix(1.4726259818901588,0,0,1.4726259818901588,171.50727467649665,-28.398019016745437)" stroke="none" fill="white"><path d="M93.4 75.1c-.4-.3-1.1-.1-1.4.3L89.7 79H9.8L8 75.3c-.2-.5-.8-.7-1.3-.4-.5.2-.7.8-.4 1.3l2.1 4.2c.1.4.4.6.8.6h81.1c.3 0 .7-.2.8-.5l2.6-4c.3-.5.2-1.1-.3-1.4z"></path><path d="M16.3 69.4h2.1v2.1c0 3 2.4 5.4 5.4 5.4H42c3 0 5.4-2.4 5.4-5.4v-3c1.2.7 2.4 1.3 3.8 1.8l-1 5.1c-.1.3 0 .6.2.8.2.2.5.4.8.4h22.2c.3 0 .6-.1.8-.4.2-.2.3-.5.2-.8l-1-5.1c6.7-2.5 13.2-8 13.6-19.9 0-.3-.1-.5-.3-.7-.2-.2-.4-.3-.7-.3h-7.8c2-2.2 7.5-8.6 7-13.2-.2-1.5-.8-3-1.8-4.1l3.8-5.1c.3-.4.2-1.1-.2-1.4-.4-.3-1.1-.2-1.4.2L83 29l.9-8c.1-.5-.3-1-.9-1.1-.5-.1-1 .3-1.1.9l-1 9.2c-.3-.1-.5-.3-.8-.4-2.2-.8-4.4-.5-5.8.8-1.8 1.7-3.9 4.7-5.2 6.8-.2-.8-.4-1.5-.8-2.2-1-1.6-2.5-2.4-4.5-2.6-2.1-.2-3.7.4-4.8 1.6-.6.7-.9 1.5-1.1 2.3-.8-.6-2-1.1-3.5-1.3-1.6-.2-2.9.1-3.9 1.1-1.1 1-1.5 2.5-1.7 3.8-.4-.2-.9-.4-1.4-.5-1.4-.1-2.7.6-4 2.3-1.4 1.8-1.9 3.6-1.4 5.2.3.9.8 1.7 1.4 2.3h-4.7c-.3 0-.5.1-.7.3-.2.2-.3.5-.3.7 0 .8.1 1.6.2 2.4H19.4c-.6 0-1 .4-1 1V59h-2.1c-2.9 0-5.2 2.3-5.2 5.2 0 2.8 2.4 5.2 5.2 5.2zm23.8-14.6h5.2v16.7c0 1.9-1.5 3.4-3.4 3.4H23.8c-1.9 0-3.4-1.5-3.4-3.4V54.8h19.7zm32 19.7H52.4l.7-3.7c2.3.6 4.8 1.1 7.5 1.3h3.2c2.2-.1 4.9-.5 7.5-1.3l.8 3.7zm-2.8-33.7l.1-.1s1.1-1.9 2.5-4c3 0 5.6 3.1 5.6 3.1.2.2.5.4.8.4.2 0 .4-.1.6-.2.4-.3.5-1 .1-1.4-.1-.1-2.6-3.1-5.8-3.7.8-1.1 1.7-2.1 2.4-2.8.9-.8 2.3-1 3.8-.4s3.4 2.2 3.7 4.8c.3 2.7-2.5 6.9-4.9 9.8-1-.9-2.7-1.9-4.1-2.7-.5-.3-1.1-.1-1.3.4-.3.5-.1 1.1.4 1.3 1.6.9 3.3 1.9 3.8 2.4-.3.4-.6.7-.9 1-.2.2-.3.5-.3.7h-8.4c.6-1.7 1.7-5.2 1.9-8.6zm-25.5 5.7c-.3-1 .1-2.1 1.1-3.4.6-.7 1.4-1.6 2.2-1.5.8.1 1.4 1 1.6 1.4.2.4.7.6 1.2.5.5-.1.8-.6.7-1-.1-.9 0-3.5 1.2-4.7.5-.5 1.3-.7 2.3-.5 2.3.3 3.3 1.4 3.7 2.2.1 1 .3 1.7.3 1.8.1.5.6.8 1 .7.5 0 .9-.4.9-.9.1-.6 0-1.3-.3-2.1-.1-1.2 0-2.6.8-3.4.6-.7 1.6-1 3.1-.9 1.4.1 2.4.6 3 1.6 2 3.2-.2 10.3-1.3 13.1h-3.5l.9-5.6c.1-.5-.3-1.1-.8-1.2-.5-.1-1.1.3-1.2.8l-1 6H55l-2.4-4c-.3-.5-.9-.6-1.4-.3-.5.3-.6.9-.3 1.4l1.8 2.9H47c-.7-.3-2.7-1.3-3.2-2.9zm-4.1 4.8h45.1c-1 14.5-12 18.3-21.1 18.8-1.5.1-3 0-3 0-5.6-.5-10-1.9-13.4-4.1V53.8c0-.6-.4-1-1-1h-6.6v-1.5zM16.3 61h2.1v6.4h-2.1c-1.8 0-3.2-1.4-3.2-3.2s1.5-3.2 3.2-3.2zM28.8 22.9c.1 0 3.2 1 2.6 4.3-.2 1.2-.9 2.1-1.6 3-1.4 1.9-3.1 4.1.8 8 .2.2.5.3.7.3.3 0 .5-.1.7-.3.4-.4.4-1 0-1.4-2.7-2.7-2-3.6-.6-5.4.8-1 1.7-2.2 1.9-3.9.7-4-2.4-6-4-6.5-.5-.2-1.1.1-1.2.7-.1.4.2 1 .7 1.2z"></path><path d="M32.4 32.2c-.3.5-.1 1.1.3 1.4.3.2 2.8 1.9 1.4 4.8-.5 1.1-1.4 1.8-2.3 2.5-1.9 1.5-4 3.2-1.3 8 .2.3.5.5.9.5.2 0 .3 0 .5-.1.5-.3.7-.9.4-1.4-1.9-3.3-1-4 .8-5.4 1-.8 2.2-1.7 2.9-3.3 1.7-3.7-.7-6.4-2.2-7.3-.5-.3-1.1-.1-1.4.3z"></path></g><!----></svg>